<svg width="96" height="91" xmlns="http://www.w3.org/2000/svg" xmlns:xlink="http://www.w3.org/1999/xlink" xml:space="preserve" overflow="hidden"><defs><clipPath id="clip0"><rect x="1018" y="523" width="96" height="91"/></clipPath></defs><g clip-path="url(#clip0)" transform="translate(-1018 -523)"><path d="M81.0469 71.6625 69.1979 59.8135C67.5865 58.2021 65.4062 57.6333 63.3208 58.0125L59.15 53.8417C62.8469 49.1021 65.0271 43.0354 65.0271 36.5896 65.0271 20.949 52.2302 8.15208 36.5896 8.15208 20.949 8.15208 8.15208 20.949 8.15208 36.5896 8.15208 52.2302 20.949 65.0271 36.5896 65.0271 43.0354 65.0271 49.0073 62.8469 53.8417 59.15L58.0125 63.3208C57.6333 65.4062 58.2021 67.5865 59.8135 69.1979L71.6625 81.0469C72.9896 82.374 74.6958 83.0375 76.4021 83.0375 78.1083 83.0375 79.8146 82.374 81.1417 81.0469 83.6062 78.3927 83.6062 74.2219 81.0469 71.6625ZM36.4948 59.2448C23.9823 59.2448 13.7448 49.0073 13.7448 36.4948 13.7448 23.9823 23.9823 13.7448 36.4948 13.7448 49.0073 13.7448 59.2448 23.9823 59.2448 36.4948 59.2448 49.0073 49.0073 59.2448 36.4948 59.2448Z" transform="matrix(1.05495 0 0 1 1018 523)"/></g></svg>