<svg width="96" height="91" xmlns="http://www.w3.org/2000/svg" xmlns:xlink="http://www.w3.org/1999/xlink" xml:space="preserve" overflow="hidden"><defs><clipPath id="clip0"><rect x="598" y="418" width="96" height="91"/></clipPath></defs><g clip-path="url(#clip0)" transform="translate(-598 -418)"><path d="M7.58333 18.9583 7.58333 72.0417 83.4167 72.0417 83.4167 18.9583 7.58333 18.9583ZM46.8271 52.0406C46.0687 52.799 44.9313 52.799 44.1729 52.0406L16.1146 24.6458 74.9802 24.6458 46.8271 52.0406ZM31.7552 45.2156 13.2708 63.7948 13.2708 27.1104 31.7552 45.2156ZM34.5042 47.8698 41.6135 54.7896C42.751 55.8323 44.1729 56.401 45.5948 56.401 47.0167 56.401 48.4385 55.8323 49.576 54.7896L56.6854 47.8698 75.075 66.3542 16.0198 66.3542 34.5042 47.8698ZM59.2448 45.2156 77.7292 27.2052 77.7292 63.7 59.2448 45.2156Z" transform="matrix(1.05495 0 0 1 598 418)"/></g></svg>