<svg width="96" height="91" xmlns="http://www.w3.org/2000/svg" xmlns:xlink="http://www.w3.org/1999/xlink" xml:space="preserve" overflow="hidden"><defs><clipPath id="clip0"><rect x="525" y="523" width="96" height="91"/></clipPath></defs><g clip-path="url(#clip0)" transform="translate(-525 -523)"><path d="M58.676 59.15C66.0698 52.0406 66.449 40.2865 59.4344 32.7031 66.9229 36.5896 73.0844 42.5615 76.6865 46.5427 72.8948 50.2396 66.449 55.7375 58.676 59.15ZM21.4229 39.6229C24.551 36.9688 27.8687 34.6937 31.4708 32.7979 24.551 40.3812 24.9302 52.0406 32.324 59.15 24.551 55.7375 18.0104 50.2396 14.3135 46.5427 16.4937 44.0781 18.8635 41.8031 21.4229 39.6229L21.4229 39.6229ZM45.5 60.6667C37.1583 60.6667 30.3333 53.8417 30.3333 45.5 30.3333 37.1583 37.1583 30.3333 45.5 30.3333 53.8417 30.3333 60.6667 37.1583 60.6667 45.5 60.6667 53.8417 53.8417 60.6667 45.5 60.6667ZM82.374 43.8885C76.876 37.4427 62.4677 22.75 45.5 22.75 28.5323 22.75 14.124 37.4427 8.62604 43.8885 7.20417 45.5948 7.29896 47.9646 8.81563 49.576 14.4083 55.4531 28.7219 68.25 45.5 68.25 62.2781 68.25 76.5917 55.4531 82.2792 49.576 83.701 48.0594 83.7958 45.5948 82.374 43.8885Z" transform="matrix(1.05495 0 0 1 525 523)"/><path d="M54.9792 45.5C54.9792 50.7352 50.7352 54.9792 45.5 54.9792 40.2648 54.9792 36.0208 50.7352 36.0208 45.5 36.0208 40.2648 40.2648 36.0208 45.5 36.0208 50.7352 36.0208 54.9792 40.2648 54.9792 45.5Z" transform="matrix(1.05495 0 0 1 525 523)"/></g></svg>