<svg width="96" height="91" xmlns="http://www.w3.org/2000/svg" xmlns:xlink="http://www.w3.org/1999/xlink" xml:space="preserve" overflow="hidden"><defs><clipPath id="clip0"><rect x="39" y="100" width="96" height="91"/></clipPath></defs><g clip-path="url(#clip0)" transform="translate(-39 -100)"><path d="M53.0833 10.4271C53.0833 14.6152 49.6882 18.0104 45.5 18.0104 41.3118 18.0104 37.9167 14.6152 37.9167 10.4271 37.9167 6.23892 41.3118 2.84375 45.5 2.84375 49.6882 2.84375 53.0833 6.23892 53.0833 10.4271Z" transform="matrix(1.05495 0 0 1 39 100)"/><path d="M66.1646 49.4813 60.8562 26.9208C60.6667 26.1625 60.2875 25.4042 59.7188 24.8354 57.4437 22.9396 54.7896 21.6125 51.7562 20.6646 49.6708 20.2854 47.5854 19.9062 45.5 19.9062 43.4146 19.9062 41.3292 20.2854 39.2438 20.8542 36.2104 21.6125 33.5563 23.1292 31.2812 25.025 30.7125 25.5938 30.3333 26.3521 30.1437 27.1104L24.8354 49.6708C24.8354 49.8604 24.6458 50.2396 24.6458 50.6188 24.6458 52.7042 26.3521 54.4104 28.4375 54.4104 30.1437 54.4104 31.6604 53.0833 32.0396 51.5667L36.0208 35.0729 36.0208 88.1562 43.6042 88.1562 43.6042 54.0312 47.3958 54.0312 47.3958 88.1562 54.9792 88.1562 54.9792 34.8833 58.9604 51.3771C59.3396 52.8937 60.8562 54.2208 62.5625 54.2208 64.6479 54.2208 66.3542 52.5146 66.3542 50.4292 66.3542 50.05 66.1646 49.6708 66.1646 49.4813Z" transform="matrix(1.05495 0 0 1 39 100)"/></g></svg>