<svg width="96" height="91" xmlns="http://www.w3.org/2000/svg" xmlns:xlink="http://www.w3.org/1999/xlink" xml:space="preserve" overflow="hidden"><defs><clipPath id="clip0"><rect x="361" y="523" width="96" height="91"/></clipPath></defs><g clip-path="url(#clip0)" transform="translate(-361 -523)"><path d="M77.7292 36.0208 58.7708 36.0208 58.7708 24.6458 77.7292 24.6458 77.7292 36.0208ZM77.7292 51.1875 58.7708 51.1875 58.7708 39.8125 77.7292 39.8125 77.7292 51.1875ZM77.7292 66.3542 58.7708 66.3542 58.7708 54.9792 77.7292 54.9792 77.7292 66.3542ZM36.0208 66.3542 36.0208 54.9792 54.9792 54.9792 54.9792 66.3542 36.0208 66.3542ZM13.2708 66.3542 13.2708 54.9792 32.2292 54.9792 32.2292 66.3542 13.2708 66.3542ZM13.2708 39.8125 32.2292 39.8125 32.2292 51.1875 13.2708 51.1875 13.2708 39.8125ZM13.2708 24.6458 32.2292 24.6458 32.2292 36.0208 13.2708 36.0208 13.2708 24.6458ZM54.9792 39.8125 54.9792 51.1875 36.0208 51.1875 36.0208 39.8125 54.9792 39.8125ZM54.9792 24.6458 54.9792 36.0208 36.0208 36.0208 36.0208 24.6458 54.9792 24.6458ZM7.58333 18.9583 7.58333 72.0417 83.4167 72.0417 83.4167 18.9583 7.58333 18.9583Z" transform="matrix(1.05495 0 0 1 361 523)"/></g></svg>