<svg width="96" height="91" xmlns="http://www.w3.org/2000/svg" xmlns:xlink="http://www.w3.org/1999/xlink" xml:space="preserve" overflow="hidden"><defs><clipPath id="clip0"><rect x="521" y="207" width="96" height="91"/></clipPath></defs><g clip-path="url(#clip0)" transform="translate(-521 -207)"><path d="M21.8021 13.2708 69.1979 13.2708 69.1979 77.7292 21.8021 77.7292 21.8021 13.2708ZM16.1146 83.4167 74.8854 83.4167 74.8854 7.58333 16.1146 7.58333 16.1146 83.4167Z" transform="matrix(1.05495 0 0 1 521 207)"/><path d="M47.3958 21.8021 63.5104 21.8021 63.5104 25.5938 47.3958 25.5938Z" transform="matrix(1.05495 0 0 1 521 207)"/><path d="M47.3958 36.9688 63.5104 36.9688 63.5104 40.7604 47.3958 40.7604Z" transform="matrix(1.05495 0 0 1 521 207)"/><path d="M47.3958 67.3021 63.5104 67.3021 63.5104 71.0938 47.3958 71.0938Z" transform="matrix(1.05495 0 0 1 521 207)"/><path d="M47.3958 52.1354 63.5104 52.1354 63.5104 55.9271 47.3958 55.9271Z" transform="matrix(1.05495 0 0 1 521 207)"/><path d="M41.5187 19.7167 38.8646 17.0625 32.6083 23.3188 30.1437 20.8542 27.4896 23.5083 32.6083 28.6271Z" transform="matrix(1.05495 0 0 1 521 207)"/><path d="M41.5187 34.8833 38.8646 32.2292 32.6083 38.4854 30.1437 36.0208 27.4896 38.675 32.6083 43.7938Z" transform="matrix(1.05495 0 0 1 521 207)"/><path d="M41.5187 50.05 38.8646 47.3958 32.6083 53.6521 30.1437 51.1875 27.4896 53.8417 32.6083 58.9604Z" transform="matrix(1.05495 0 0 1 521 207)"/><path d="M41.5187 65.0271 38.8646 62.3729 32.6083 68.6292 30.1437 66.1646 27.4896 68.8187 32.6083 73.9375Z" transform="matrix(1.05495 0 0 1 521 207)"/></g></svg>